<?xml version="1.0" ?><!DOCTYPE svg  PUBLIC '-//W3C//DTD SVG 1.1//EN'  'http://www.w3.org/Graphics/SVG/1.1/DTD/svg11.dtd' [
	<!ENTITY stroke_color "#666666">
	<!ENTITY fill_color "#ffffff">
]><svg height="72.000000pt" id="svg3129" inkscape:version="0.48.4 r9939" preserveAspectRatio="xMidYMid meet" sodipodi:docname="fLbDFCtw01.svg" version="1.0" viewBox="0 0 72.000000 72.000000" width="72.000000pt" xmlns="http://www.w3.org/2000/svg" xmlns:cc="http://creativecommons.org/ns#" xmlns:dc="http://purl.org/dc/elements/1.1/" xmlns:inkscape="http://www.inkscape.org/namespaces/inkscape" xmlns:rdf="http://www.w3.org/1999/02/22-rdf-syntax-ns#" xmlns:sodipodi="http://sodipodi.sourceforge.net/DTD/sodipodi-0.dtd" xmlns:svg="http://www.w3.org/2000/svg">
  <defs id="defs3141"/>
  <sodipodi:namedview bordercolor="#666666" borderopacity="1" gridtolerance="10" guidetolerance="10" id="namedview3139" inkscape:current-layer="svg3129" inkscape:cx="45" inkscape:cy="45" inkscape:pageopacity="0" inkscape:pageshadow="2" inkscape:window-height="744" inkscape:window-maximized="1" inkscape:window-width="1301" inkscape:window-x="65" inkscape:window-y="24" inkscape:zoom="2.6222222" objecttolerance="10" pagecolor="#ffffff" showgrid="false"/>
  <metadata id="metadata3131">
Created by potrace 1.10, written by Peter Selinger 2001-2011
<rdf:RDF>
  <cc:Work rdf:about="">
    <dc:format>image/svg+xml</dc:format>
    <dc:type rdf:resource="http://purl.org/dc/dcmitype/StillImage"/>
  </cc:Work>
</rdf:RDF>
</metadata>
  <g fill="&stroke_color;" id="g3133" stroke="none" transform="translate(0.000000,72.000000) scale(0.100000,-0.100000)">
    <path d="M78 713 c-25 -3 -44 -13 -58 -30 -19 -25 -20 -40 -20 -330 l0 -304 25 -24 c22 -23 32 -25 118 -25 59 0 97 4 105 12 7 7 12 39 12 75 0 43 4 63 13 63 75 3 209 1 213 -3 3 -2 5 -31 5 -63 1 -33 6 -65 11 -71 7 -8 36 -13 80 -13 82 0 113 17 128 69 11 39 14 518 4 570 -4 19 -19 40 -38 54 -30 21 -39 22 -296 23 -146 1 -282 0 -302 -3z m571 -38 c16 -8 31 -22 35 -30 3 -9 6 -142 6 -296 l0 -280 -26 -24 c-22 -21 -37 -25 -85 -25 l-59 0 0 80 0 80 -37 0 c-21 0 -33 4 -27 8 7 4 13 58 17 135 6 152 3 157 -98 157 -73 0 -105 -18 -105 -59 0 -16 -10 -40 -21 -55 -23 -29 -19 -47 6 -26 8 7 15 22 16 34 0 20 1 20 8 1 5 -11 4 -30 -2 -42 -6 -14 -6 -45 0 -87 l9 -66 -28 0 -28 0 0 -80 0 -80 -84 0 c-79 0 -86 2 -105 26 -20 26 -21 39 -21 310 l0 283 25 26 26 25 275 0 c222 0 280 -3 303 -15z m-193 -255 c3 -48 -35 -82 -50 -45 -4 11 1 15 19 15 14 0 25 5 25 10 0 6 -9 10 -19 10 -11 0 -23 -4 -26 -10 -6 -9 -125 -15 -125 -6 0 3 4 16 10 31 10 25 12 26 87 23 75 -3 78 -4 79 -28z m-64 -64 c10 -7 15 -16 11 -19 -3 -4 3 -7 15 -7 23 0 25 -3 25 -45 0 -14 -1 -29 -2 -33 0 -4 -33 -8 -71 -8 l-71 -1 3 53 c2 28 6 50 10 47 5 -2 8 3 8 11 0 20 48 21 72 2z m42 -158 c4 -16 -4 -18 -67 -17 -40 0 -66 3 -59 6 6 2 12 10 12 16 0 8 20 12 55 12 43 0 55 -4 59 -17z" id="path3135"/>
    <path d="M184 405 c9 -9 20 -24 25 -33 8 -15 11 -14 29 8 19 23 19 26 4 32 -9 4 -30 7 -45 7 -26 1 -27 -1 -13 -14z" id="path3137"/>
  </g>
  <path d="M 12.92946,87.103514 C 7.9960923,86.817836 7.4197674,86.580393 5.298623,83.95965 3.013748,81.136609 3.0303874,81.406319 2.8480892,44.23926 L 2.6818126,10.33869 5.859974,7.1247784 9.0381356,3.910867 41.072034,4.0909424 c 20.515004,0.1153231 33.186928,0.3342051 35.240457,0.6087081 3.590657,0.4799771 6.295519,1.7195341 8.007834,3.6697531 1.010753,1.1511873 1.066752,1.4280105 1.308489,6.4684484 0.138898,2.896186 0.252542,19.034793 0.252542,35.863572 l 0,30.597776 -2.313416,2.141814 c -1.272375,1.178 -2.843657,2.416015 -3.491733,2.751147 -1.285001,0.664501 -6.67448,1.255805 -11.641885,1.277287 l -3.146186,0.0136 0,-10.105932 0,-10.105933 -3.527543,-0.0058 c -4.196631,-0.0069 -4.633169,-0.191113 -4.114029,-1.735593 1.133588,-3.372498 2.283361,-22.9662 1.664218,-28.36061 -0.444959,-3.876846 -1.032899,-5.032122 -3.215052,-6.317454 -1.165504,-0.686505 -1.980747,-0.762712 -8.159289,-0.762712 -5.499012,0 -7.299996,0.134698 -9.054301,0.677182 -2.747434,0.849591 -4.738798,2.72459 -5.046401,4.751517 -0.591353,3.896658 -1.139409,5.514507 -2.909181,8.587821 -2.446834,4.249079 -2.336658,5.725011 0.307046,4.11324 1.404207,-0.856094 2.3252,-2.438329 2.745169,-4.716099 l 0.29346,-1.591627 0.475473,1.6816 c 0.397882,1.407189 0.377053,2.073414 -0.127642,4.082614 -0.933062,3.714536 -0.688451,9.694091 0.750926,18.356549 l 0.205944,1.239406 -3.449484,0 -3.449484,0 0,10.105933 0,10.105932 -5.625,-0.05952 C 19.959216,87.390812 15.403638,87.246789 12.92946,87.103514 z M 29.290723,43.341102 c 1.625217,-1.738911 2.561847,-3.417689 2.294912,-4.113311 -0.109101,-0.28431 -1.09652,-0.783652 -2.194267,-1.109648 -2.242288,-0.665888 -7.577809,-0.810915 -7.577809,-0.205976 0,0.212709 0.751292,1.309127 1.669537,2.436485 0.918246,1.127357 1.984907,2.583621 2.370359,3.236136 0.921593,1.560135 1.810269,1.497131 3.437268,-0.243686 l 0,0 z" id="path3143" inkscape:connector-curvature="0" style="fill:&fill_color;;fill-opacity:1;stroke:&fill_color;;stroke-width:0.38135594;stroke-opacity:1" transform="scale(0.8,0.8)"/>
  <path d="m 35.46858,40.770766 c -0.353458,-0.372236 1.381195,-5.097305 2.156253,-5.873476 0.805135,-0.806291 6.74035,-1.016823 13.205298,-0.468414 5.412536,0.459135 6.068174,0.84388 6.068174,3.560953 0,1.308863 -0.0942,1.48259 -0.667373,1.230778 -1.744552,-0.766436 -3.609832,-0.634198 -5.655789,0.400961 -1.929304,0.976139 -2.442432,1.05106 -8.448079,1.23349 -3.516707,0.106825 -6.513025,0.06889 -6.658484,-0.08429 z" id="path3145" inkscape:connector-curvature="0" style="fill:&fill_color;;fill-opacity:1;stroke:&fill_color;;stroke-width:0.38135594;stroke-opacity:1" transform="scale(0.8,0.8)"/>
  <path d="m 51.574178,43.936566 c -0.427662,-0.459042 -0.777568,-1.05364 -0.777568,-1.321329 0,-0.691804 1.259452,-1.276254 2.750245,-1.276254 0.701229,0 1.656367,-0.267146 2.122528,-0.593658 1.112225,-0.779032 1.132421,-0.08037 0.05024,1.737726 -1.453875,2.442545 -2.78816,2.910385 -4.145441,1.453515 z" id="path3147" inkscape:connector-curvature="0" style="fill:&fill_color;;fill-opacity:1;stroke:&fill_color;;stroke-width:0.38135594;stroke-opacity:1" transform="scale(0.8,0.8)"/>
  <path d="m 35.46858,40.770766 c -0.353427,-0.372203 1.381151,-5.097241 2.156174,-5.873476 0.802651,-0.803907 7.256388,-1.027333 13.457969,-0.465912 5.132915,0.464677 5.815582,0.882389 5.815582,3.558451 0,1.299666 -0.09823,1.484374 -0.667373,1.254921 -1.85732,-0.748789 -3.434462,-0.641637 -5.594181,0.380074 -2.042996,0.966492 -2.635883,1.051893 -8.549466,1.231486 -3.494829,0.106137 -6.473246,0.06764 -6.618705,-0.08554 l 0,0 z" id="path3149" inkscape:connector-curvature="0" style="fill:&fill_color;;fill-opacity:1;stroke:&fill_color;;stroke-width:0.38135594;stroke-opacity:1" transform="scale(0.8,0.8)"/>
  <path d="m 37.621589,58.260728 c 0.09464,-0.602511 0.265574,-2.639965 0.379859,-4.527677 0.296314,-4.894371 0.569447,-6.197579 1.341221,-6.399402 0.372452,-0.0974 0.765035,-0.69632 0.900543,-1.373861 0.371028,-1.855141 2.815604,-2.472117 6.006764,-1.516022 2.011887,0.602776 4.252883,2.501477 3.977291,3.36979 -0.232492,0.732517 0.666145,1.137764 2.544222,1.147338 1.895996,0.0097 2.220036,0.787734 2.220036,5.33063 0,3.567215 -0.0905,4.165643 -0.667372,4.412749 -0.367056,0.15723 -4.314006,0.368236 -8.771002,0.468901 l -8.103629,0.183028 0.172067,-1.095474 z" id="path3151" inkscape:connector-curvature="0" style="fill:&fill_color;;fill-opacity:1;stroke:&fill_color;;stroke-width:0.38135594;stroke-opacity:1" transform="scale(0.8,0.8)"/>
  <path d="m 41.137219,66.988469 c -1.959807,-0.122105 -2.164714,-0.208671 -1.730991,-0.731276 0.270578,-0.326026 0.671643,-0.953182 0.891255,-1.39368 0.54928,-1.101747 1.621395,-1.323863 6.602478,-1.367872 4.740351,-0.04188 6.693571,0.467944 7.136246,1.862691 0.144236,0.454446 0.174368,0.914144 0.06696,1.021551 -0.771043,0.771043 -6.239119,1.0277 -12.965949,0.608586 z" id="path3153" inkscape:connector-curvature="0" style="fill:&fill_color;;fill-opacity:1;stroke:&fill_color;;stroke-width:0.38135594;stroke-opacity:1" transform="scale(0.8,0.8)"/>
  <path d="M 12.661017,87.114341 C 8.2993504,86.845321 7.7330845,86.646928 5.9112767,84.749522 2.9300267,81.64456 2.764702,79.301178 2.7539227,39.995818 L 2.7457627,10.241635 5.9379716,7.0660097 9.13018,3.8903838 41.118056,4.0809194 c 20.209931,0.1203804 33.15444,0.3467013 35.156162,0.6146681 3.540871,0.4740095 6.140418,1.6119307 7.891036,3.4542115 1.05964,1.1151232 1.162354,1.4765617 1.391869,4.897848 0.136289,2.031633 0.264997,18.252872 0.286017,36.047197 l 0.03822,32.353318 -1.811441,1.687458 c -3.87244,3.607398 -6.370928,4.308998 -15.444915,4.337096 l -3.336864,0.01033 0,-10.105932 0,-10.105933 -3.527543,-0.0058 C 59.820449,67.262281 58.02263,67.125858 57.76544,66.96247 57.428581,66.748464 57.39506,66.296897 57.645565,65.347546 58.59201,61.760706 59.738404,44.395637 59.388659,38.94387 59.054972,33.742452 58.197978,31.777634 55.819918,30.761892 53.993025,29.981565 44.80054,29.668824 41.350523,30.269619 c -4.386478,0.763872 -7.068925,2.77473 -7.532058,5.646297 -0.576316,3.573345 -1.123096,5.181032 -2.70791,7.962019 -2.237965,3.927119 -2.434174,4.70684 -1.184432,4.70684 0.817177,0 3.290623,-1.957008 3.344949,-2.646549 0.0093,-0.117492 0.245621,-1.071672 0.525255,-2.1204 l 0.508426,-1.90678 0.462207,1.692713 c 0.385265,1.410933 0.35726,2.124511 -0.168228,4.286563 -0.766996,3.155709 -0.708329,6.840713 0.218112,13.700032 0.379508,2.809854 0.698006,5.237535 0.707774,5.394844 0.0098,0.15731 -1.526733,0.286017 -3.414445,0.286017 l -3.432203,0 0,10.105933 0,10.105932 -6.006356,-0.06087 c -3.3035,-0.03351 -7.808267,-0.172034 -10.010597,-0.307869 z M 29.453828,42.959746 c 1.982529,-2.239771 2.562643,-3.392427 1.993699,-3.961372 -1.056795,-1.056795 -8.885565,-1.994012 -9.420902,-1.127818 -0.117317,0.189822 0.403969,1.083959 1.158412,1.986969 0.754444,0.903011 1.878208,2.377999 2.497254,3.277747 0.619045,0.899753 1.360123,1.635914 1.64684,1.635914 0.286717,0 1.24283,-0.815148 2.124697,-1.81144 z" id="path3155" inkscape:connector-curvature="0" style="fill:&fill_color;;fill-opacity:1;stroke:&fill_color;;stroke-width:0.38135594;stroke-opacity:1" transform="scale(0.8,0.8)"/>
  <path d="M 13.233051,87.225464 C 8.945259,86.955376 8.0642178,86.699704 6.4685296,85.262434 4.124901,83.151481 3.5246886,81.412147 3.1210478,75.561872 2.9294456,72.784834 2.7666238,56.910726 2.7592214,40.286075 L 2.7457627,10.059437 5.6930345,6.9745625 8.6403062,3.8896878 41.063797,4.0815675 c 19.438097,0.1150332 33.615667,0.3529687 35.40026,0.594106 3.411519,0.4609699 5.787111,1.5165584 7.583068,3.3695169 1.142775,1.1790438 1.27548,1.5668965 1.51311,4.4223286 0.14326,1.721466 0.274119,18.002268 0.290796,36.179559 l 0.03032,33.049621 -2.344881,1.959338 c -1.289685,1.077636 -2.8243,2.207254 -3.410257,2.510264 -1.535922,0.794254 -5.614665,1.300508 -10.547828,1.309195 l -4.290254,0.0076 0,-10.105932 0,-10.105933 -3.791052,0 c -2.085079,0 -3.872326,-0.131499 -3.971654,-0.292221 -0.09933,-0.160719 -0.02021,-1.147477 0.175854,-2.192797 1.279038,-6.819635 1.983822,-26.750387 1.06512,-30.120914 -0.498924,-1.830453 -1.624576,-3.1548 -3.281663,-3.860923 -1.909282,-0.813589 -13.401058,-0.767494 -16.128809,0.0647 -3.9193,1.195709 -4.915554,2.386286 -5.884199,7.031935 -0.354893,1.702071 -1.237812,3.985047 -2.303277,5.955612 -2.352593,4.351088 -2.221285,5.935382 0.32587,3.931787 1.220524,-0.960063 1.982617,-2.355723 2.347037,-4.298243 0.188155,-1.002955 0.392862,-1.323687 0.668753,-1.047799 0.557051,0.557054 0.531757,3.934488 -0.05314,7.095818 -0.522447,2.82378 -0.408754,5.506524 0.548469,12.941855 0.295312,2.293867 0.536931,4.310287 0.536931,4.480932 0,0.170645 -1.544492,0.310263 -3.432204,0.310263 l -3.432203,0 0,10.105933 0,10.105932 -6.769068,-0.06874 C 18.185911,87.376519 14.28178,87.291526 13.233051,87.225464 z M 29.822099,42.39241 c 2.564533,-3.220918 2.056441,-3.895088 -3.460366,-4.591437 -4.728962,-0.596905 -4.881168,-0.343937 -2.061066,3.425517 1.223192,1.634965 2.392601,3.085494 2.598687,3.223396 0.636885,0.426177 1.338461,-0.0677 2.922745,-2.057476 z" id="path3157" inkscape:connector-curvature="0" style="fill:&fill_color;;fill-opacity:1;stroke:&fill_color;;stroke-width:0.38135594;stroke-opacity:1" transform="scale(0.8,0.8)"/>
</svg>